<?xml version="1.0" standalone="no"?>
<!DOCTYPE svg PUBLIC "-//W3C//DTD SVG 20010904//EN"
 "http://www.w3.org/TR/2001/REC-SVG-20010904/DTD/svg10.dtd">
<svg version="1.0" xmlns="http://www.w3.org/2000/svg"
 width="150.000000pt" height="150.000000pt" viewBox="0 0 150.000000 150.000000"
 preserveAspectRatio="xMidYMid meet">
<metadata>
Created by potrace 1.11, written by Peter Selinger 2001-2013
</metadata>
<g transform="translate(0.000000,150.000000) scale(0.100000,-0.100000)"
fill="#000000" stroke="none">
<path d="M699 1484 c-10 -12 -10 -22 0 -49 11 -31 9 -40 -25 -107 -20 -40 -37
-74 -39 -76 -1 -1 -47 15 -101 35 -84 33 -99 42 -100 61 -2 31 -17 44 -44 40
-55 -8 -50 -70 6 -76 26 -3 33 -11 62 -80 43 -103 45 -106 68 -94 77 40 138
52 235 47 66 -4 106 -14 192 -50 10 -4 17 -3 17 5 0 24 70 161 79 155 17 -10
50 31 44 54 -11 44 -78 35 -85 -11 -2 -16 -24 -29 -87 -54 -46 -19 -85 -34
-87 -34 -2 0 -22 36 -44 80 -39 77 -40 81 -24 105 16 24 15 27 -1 45 -22 24
-48 26 -66 4z"/>
<path d="M608 1091 c-156 -40 -249 -158 -249 -315 0 -137 84 -251 217 -293 35
-11 56 -23 60 -36 3 -10 19 -24 35 -31 26 -11 28 -14 15 -26 -16 -13 -23 -35
-8 -26 15 9 31 -10 37 -44 19 -108 38 -152 96 -210 57 -57 134 -91 236 -104
88 -10 109 -4 97 27 -4 13 -19 17 -53 17 -177 1 -315 114 -323 267 -3 45 -1
48 20 46 26 -3 28 4 7 28 -15 15 -14 17 9 23 16 4 28 16 32 30 3 15 16 27 31
31 154 38 249 170 238 332 -9 137 -95 239 -240 285 -55 18 -185 17 -257 -1z
m340 -68 c52 -34 80 -83 47 -83 -8 0 -15 4 -15 10 0 5 -18 22 -40 36 -22 15
-40 33 -40 40 0 19 15 18 48 -3z m-127 -54 c44 -31 71 -101 71 -185 0 -152
-85 -241 -202 -211 -72 18 -111 83 -116 189 -5 116 34 200 106 226 37 14 109
4 141 -19z"/>
</g>
</svg>
